<?xml version="1.0" encoding="UTF-8"?>
<svg width="46px" height="46px" viewBox="0 0 46 46" version="1.1" xmlns="http://www.w3.org/2000/svg" xmlns:xlink="http://www.w3.org/1999/xlink">
    <title>位图</title>
    <g id="收银台" stroke="none" stroke-width="1" fill="none" fill-rule="evenodd">
        <g id="配送中-详情与操作-收银台" transform="translate(-60.000000, -797.000000)" fill="#28C445" fill-rule="nonzero">
            <g id="编组-8备份" transform="translate(30.000000, 767.000000)">
                <g id="微信" transform="translate(30.000000, 30.000000)">
                    <path d="M10.6052507,14.5526243 C10.6052507,15.6315903 11.4736382,16.499977 12.5526053,16.499977 C13.6315724,16.499977 14.5000049,15.6315903 14.5000049,14.5526243 C14.5000049,13.4736583 13.6315724,12.6052716 12.5526053,12.6052716 C11.4736832,12.6052716 10.6052507,13.4736583 10.6052507,14.5526243 Z M25.7105199,24.5789401 C25.7105199,25.4210325 26.3947572,26.1052691 27.2368504,26.1052691 C28.0789436,26.1052691 28.7631809,25.4210325 28.7631809,24.5789401 C28.7631809,23.7368477 28.0789436,23.0526111 27.2368504,23.0526111 C26.3947572,23.0526111 25.7105199,23.7368477 25.7105199,24.5789401 Z M20.5000147,14.5526243 C20.5000147,15.6315903 21.3684022,16.499977 22.4473693,16.499977 C23.5263364,16.499977 24.3947239,15.6315903 24.3947239,14.5526243 C24.3947239,13.4736583 23.5263364,12.6052716 22.4473693,12.6052716 C21.3684022,12.6052716 20.5000147,13.4736583 20.5000147,14.5526243 Z M38.5526327,0 L7.44736734,0 C3.34207857,0 0,3.34212025 0,7.47369933 L0,38.5263007 C0,42.6578797 3.34207857,46 7.44736734,46 L38.5526327,46 C42.6579214,46 46,42.6578797 46,38.5263007 L46,7.47369933 C46,3.36836963 42.6579214,0 38.5526327,0 Z M17.2631584,30.8421119 C15.5262934,30.8421119 14.1315694,30.4736769 12.36841,30.131581 L7.50000098,32.5788854 L8.89472491,28.3947177 C5.39474543,25.9473234 3.31578423,22.7893982 3.31578423,18.9736207 C3.31578423,12.3420587 9.60525652,7.10521929 17.2631584,7.10521929 C24.1316007,7.10521929 30.1315655,11.289387 31.3420942,16.8947064 C30.8966582,16.8421802 30.4485262,16.8158107 30.0000039,16.8157336 C23.3684355,16.8157336 18.1315909,21.7631108 18.1315909,27.8420426 C18.1315909,28.868375 18.2894918,29.8420289 18.5526151,30.7630942 C18.1315909,30.8157277 17.7105218,30.842067 17.2631584,30.842067 L17.2631584,30.8421119 Z M37.842101,35.7105163 L38.8947738,39.184198 L35.0789475,37.0789445 C33.6842236,37.4209954 32.2894997,37.7894754 30.8947757,37.7894754 C24.2631623,37.7894754 19.0263178,33.263122 19.0263178,27.6578475 C19.0263178,22.0789572 24.2631623,17.5263095 30.8947308,17.5263095 C37.1579087,17.5263095 42.7368494,22.0789572 42.7368494,27.6578924 C42.7105551,30.8421119 40.6315939,33.6315571 37.842101,35.7105163 L37.842101,35.7105163 Z M33.3157881,24.5789401 C33.3157881,25.4210325 34.0000254,26.1052691 34.8421186,26.1052691 C35.6842119,26.1052691 36.3684491,25.4210325 36.3684491,24.5789401 C36.3684491,23.7368477 35.6842119,23.0526111 34.8421186,23.0526111 C33.9737311,23.0526111 33.3157881,23.7368477 33.3157881,24.5789401 Z" id="形状"></path>
                </g>
            </g>
        </g>
    </g>
</svg>