<svg id="Layer_1" data-name="Layer 1" xmlns="http://www.w3.org/2000/svg" xmlns:xlink="http://www.w3.org/1999/xlink" viewBox="0 0 388 388"><defs><clipPath id="clip-path"><polygon points="339.692 367.629 302.895 330.834 322.358 311.37 339.692 328.704 356.641 311.755 376.103 331.218 339.692 367.629" fill="none"/></clipPath></defs><title>388x388_for lending</title><rect width="97.0016" height="97.0016" fill="#fc801d"/><rect x="96.99843" y="97.00386" width="97.0016" height="97.0016" fill="#dd1265"/><rect y="194.00772" width="97.0016" height="97.0016" fill="#ff45ed"/><rect x="96.99843" y="194.00772" width="97.0016" height="97.0016" fill="#07c3f2"/><rect x="193.99997" width="97.0016" height="97.0016" fill="#fc801d"/><rect x="193.99997" y="97.00386" width="97.0016" height="97.0016" fill="#fdb60d"/><rect x="290.9984" width="97.0016" height="97.0016" fill="#6b57ff"/><rect x="290.9984" y="97.00386" width="97.0016" height="97.0016" fill="#dd1265"/><rect x="290.9984" y="194.00772" width="97.0016" height="97.0016" fill="#07c3f2"/><rect y="291.03534" width="97.0016" height="97.0016" fill="#fc801d"/><rect x="193.99997" y="291.03534" width="97.0016" height="97.0016" fill="#fdb60d"/><g clip-path="url(#clip-path)"><rect x="303.25278" y="307.75885" width="42.3097" height="35.07254" fill="#dd1265"/><rect x="339.71227" y="307.75885" width="42.3097" height="35.07254" fill="#087cfa"/><rect x="333.53671" y="330.67668" width="42.3097" height="37.11753" fill="#ff45ed"/><rect x="297.40185" y="330.67668" width="42.3097" height="37.11753"/></g><polygon points="339.73 328.888 322.363 311.371 356.641 311.755 339.73 328.888" fill="#fdb60d"/><path d="M51.676,158.54248a.5.5,0,0,1-.35352-.85352l25.53955-25.53955A11.50956,11.50956,0,0,0,60.585,115.87256L35.04541,141.41211a.49995.49995,0,1,1-.707-.707l25.53955-25.53955a12.50945,12.50945,0,0,1,17.69116,17.69092L52.02954,158.396A.49839.49839,0,0,1,51.676,158.54248Z"/><path d="M61.42993,182.84229a.5.5,0,0,1-.35351-.85352L86.616,156.44922a11.50956,11.50956,0,1,0-16.2771-16.27686L44.843,165.644a.49978.49978,0,1,1-.70655-.707l25.49561-25.47168A12.50937,12.50937,0,1,1,87.323,157.15625L61.78345,182.6958A.49839.49839,0,0,1,61.42993,182.84229Z"/><path d="M64.0752,214.2666a.49975.49975,0,0,1-.35376-.853l32.6604-32.71289A11.50947,11.50947,0,1,0,80.105,164.42383L54.61255,189.82568a.49995.49995,0,1,1-.70606-.708l25.49195-25.40137a12.50945,12.50945,0,0,1,17.69067,17.6914L64.429,214.11963A.497.497,0,0,1,64.0752,214.2666Z"/><path d="M31.34521,110.95117a.50025.50025,0,0,1-.46386-.3125L22.47656,89.83594a12.50978,12.50978,0,0,1,23.19751-9.373l4.6023,11.3916a.5001.5001,0,0,1-.92725.375l-4.60229-11.3916a11.50958,11.50958,0,1,0-21.343,8.623l8.40478,20.80273a.50053.50053,0,0,1-.46338.6875Z"/><path d="M42.36182,229.40234a.50026.50026,0,0,1-.46387-.3125L10.42383,151.189a23.8,23.8,0,0,1,5.25683-25.79882l33.242-33.20264a12.45886,12.45886,0,0,1,3.95752-2.66943L80.63354,77.7373a12.50984,12.50984,0,0,1,9.77588,23.03077l-23.415,9.91992a11.45752,11.45752,0,0,0-3.64868,2.459l-23.875,23.875a.49995.49995,0,0,1-.707-.707l23.875-23.875a12.4523,12.4523,0,0,1,3.96558-2.67285L90.019,99.84717a11.50956,11.50956,0,0,0-8.99487-21.189L53.27075,90.439A11.4579,11.4579,0,0,0,49.62939,92.895L16.38721,126.09766a22.80139,22.80139,0,0,0-5.03614,24.7163L42.8252,228.71484a.50053.50053,0,0,1-.46338.6875Z"/><path d="M118.7002,260.37549a.49986.49986,0,0,1-.5-.5V205.45264a22.61123,22.61123,0,0,0-22.74854-22.60987.49005.49005,0,0,1-.50366-.49658.5.5,0,0,1,.49634-.50342,23.61069,23.61069,0,0,1,23.75586,23.60987v54.42285A.49987.49987,0,0,1,118.7002,260.37549Z"/><path d="M22.0625,291.13379a.49987.49987,0,0,1-.5-.5V178.66016a.5.5,0,0,1,1,0V290.63379A.49987.49987,0,0,1,22.0625,291.13379Z"/><path d="M359.55322,242.25928H323.43457a.5.5,0,0,1,0-1h36.11865a11.50953,11.50953,0,0,0,0-23.019.5.5,0,0,1,0-1,12.50953,12.50953,0,0,1,0,25.019Z"/><path d="M284.77783,242.25928l-23.291-.03565a12.50977,12.50977,0,0,1,.001-25.01953h23.29a.5.5,0,0,1,0,1h-23.29a11.50977,11.50977,0,0,0,0,23.01953l23.291.03565a23.51929,23.51929,0,0,0-.001-47.03858H224.28662a.5.5,0,0,1,0-1h60.49121a24.51929,24.51929,0,0,1,0,49.03858Z"/><path d="M302.53271,242.25928l-23.2915-.03565a.5.5,0,0,1,.001-1h.001l23.29053.03565a23.51929,23.51929,0,0,0-.001-47.03858.5.5,0,0,1,0-1,24.51929,24.51929,0,0,1,0,49.03858Z"/><path d="M319.28662,242.25928l-23.291-.03565a.5.5,0,0,1,.001-1h.001l23.29.03565a23.51929,23.51929,0,0,0-.001-47.03858H194.5376a.5.5,0,0,1,0-1h124.749a24.51929,24.51929,0,0,1,0,49.03858Z"/><path d="M334.98877,242.25928l-23.291-.03565a.5.5,0,0,1,.001-1h.001l23.29.03565a23.51929,23.51929,0,0,0-.001-47.03858H234.16357a.5.5,0,0,1,0-1h100.8252a24.51929,24.51929,0,0,1,0,49.03858Z"/><path d="M200.7793,343.91553a12.45915,12.45915,0,0,1-12.17359-9.61817.5.5,0,0,1,.97315-.23047,11.511,11.511,0,0,0,22.71-2.66113V314.94238a.5.5,0,1,1,1,0v16.46338A12.52383,12.52383,0,0,1,200.7793,343.91553Z"/><path d="M117.03,388.53711a.49987.49987,0,0,1-.5-.5V339.12646a29.496,29.496,0,0,1,29.46265-29.46289l43.095.00049a12.50952,12.50952,0,0,1,0,25.019H139.021a.5.5,0,0,1,0-1h50.06665a11.50953,11.50953,0,0,0,0-23.019l-43.095-.00049A28.49512,28.49512,0,0,0,117.53,339.12646v48.91065A.49987.49987,0,0,1,117.03,388.53711Z"/><path d="M117.03,339.62646a.49987.49987,0,0,1-.5-.5V319.438L89.2334,252.56641a12.50963,12.50963,0,1,1,23.19678-9.374l27.05444,66.96241a.5001.5001,0,0,1-.92725.375l-27.05444-66.96241a11.50949,11.50949,0,1,0-21.343,8.62256L117.53,319.2417v19.88476A.49987.49987,0,0,1,117.03,339.62646Z"/><path d="M142.91089,310.84229a.50055.50055,0,0,1-.46338-.6875l27.05469-66.96241a12.50969,12.50969,0,1,1,23.19751,9.37256l-12.73242,31.51367a.5001.5001,0,0,1-.92725-.375l12.73242-31.51367a11.50949,11.50949,0,0,0-21.343-8.62256l-27.05468,66.96241A.50053.50053,0,0,1,142.91089,310.84229Z"/><path d="M165.06836,367.87842a.49987.49987,0,0,1-.5-.5V355.48a20.82042,20.82042,0,0,0-20.79663-20.79687.5.5,0,0,1,0-1A21.82124,21.82124,0,0,1,165.56836,355.48v11.89844A.49987.49987,0,0,1,165.06836,367.87842Z"/><path d="M212.78882,388.06787a.49987.49987,0,0,1-.5-.5V295.582a11.50952,11.50952,0,0,0-23.019,0v14.582a.5.5,0,0,1-1,0V295.582a12.50952,12.50952,0,0,1,25.019,0v91.98584A.49987.49987,0,0,1,212.78882,388.06787Z"/><path d="M176.76,343.7959a12.51071,12.51071,0,0,1-12.10278-9.334.4999.4999,0,1,1,.96728-.25293,11.5137,11.5137,0,0,0,22.27393-.01123.5.5,0,1,1,.96777.252A12.50906,12.50906,0,0,1,176.76,343.7959Z"/><path d="M164.75049,310.50293a.49987.49987,0,0,1-.5-.5V295.582a12.50965,12.50965,0,0,1,25.01929,0,.5.5,0,0,1-1,0,11.50965,11.50965,0,0,0-23.01929,0v14.4209A.49987.49987,0,0,1,164.75049,310.50293Z"/><path d="M154.14868,69.749a.49987.49987,0,0,1-.5-.5V55.68164a.5.5,0,0,1,1,0V69.249A.49987.49987,0,0,1,154.14868,69.749Z"/><path d="M230.01758,114.61621a12.473,12.473,0,0,1-8.8457-3.6582l-11.802-11.80225a.49995.49995,0,0,1,.707-.707l11.802,11.80225a11.50982,11.50982,0,0,0,16.27734-16.27735L220.00488,75.82275a9.94832,9.94832,0,0,0-14.06958,0L177.773,103.98486a.49995.49995,0,0,1-.707-.707l28.16235-28.16211a10.948,10.948,0,0,1,15.48364,0L238.86328,93.2666a12.50391,12.50391,0,0,1-8.8457,21.34961Z"/><path d="M163.0061,89.71826a.5.5,0,0,1-.35351-.85351l28.16235-28.1626a10.96182,10.96182,0,0,1,15.48389,0L224.4502,78.85352a.49995.49995,0,0,1-.707.707L205.5918,61.40918a9.96042,9.96042,0,0,0-14.06983,0l-28.16235,28.1626A.49842.49842,0,0,1,163.0061,89.71826Z"/><path d="M148.59277,75.30469a.5.5,0,0,1-.35351-.85352l28.16235-28.16211a10.96184,10.96184,0,0,1,15.48389,0l18.15112,18.15088a.49995.49995,0,1,1-.707.707L191.17847,46.99609a9.96044,9.96044,0,0,0-14.06983,0L148.94629,75.1582A.49839.49839,0,0,1,148.59277,75.30469Z"/><path d="M166.24805,56.18164H149.55713a.5.5,0,0,1,0-1h16.69092a11.566,11.566,0,0,0,1.39721-.08447.50023.50023,0,0,1,.12061.99316A12.65849,12.65849,0,0,1,166.24805,56.18164Z"/><path d="M227.38037,152.83691a.5.5,0,0,1-.35351-.85351,24.86887,24.86887,0,0,0,0-35.17041l-5.855-5.855a.49995.49995,0,0,1,.707-.707l5.855,5.855a25.8685,25.8685,0,0,1,0,36.58447A.49838.49838,0,0,1,227.38037,152.83691Z"/><path d="M193.45728,143.6499a.49816.49816,0,0,1-.35279-.14551l-57.99536-57.751a18.58388,18.58388,0,0,1-5.47949-13.228V42.11084a10.96118,10.96118,0,0,1,10.94873-10.94873h25.66968a12.52009,12.52009,0,0,1,12.3435,14.55225.5.5,0,0,1-.98681-.16211,11.51987,11.51987,0,0,0-11.35669-13.39014H140.57837a9.95988,9.95988,0,0,0-9.94873,9.94873V72.52539a17.59,17.59,0,0,0,5.18579,12.52l57.99463,57.75a.5.5,0,0,1-.35278.85449Z"/><path d="M127.46436,152.83691a.5.5,0,0,1-.35352-.85351L163.73,115.36426a.49995.49995,0,0,1,.707.707l-36.61914,36.61914A.49835.49835,0,0,1,127.46436,152.83691Z"/><path d="M329.98047,69.749a.49971.49971,0,0,1-.5-.5V55.68164a.5.5,0,0,1,1,0V69.249A.49971.49971,0,0,1,329.98047,69.749Z"/><path d="M254.11133,114.61621a12.50391,12.50391,0,0,1-8.84571-21.34961L263.417,75.11572a10.961,10.961,0,0,1,15.48389,0L307.063,103.27783a.49995.49995,0,1,1-.707.707L278.19385,75.82275a9.96044,9.96044,0,0,0-14.06983,0L245.97266,93.97363A11.50982,11.50982,0,0,0,262.25,110.251l11.80225-11.80225a.49995.49995,0,0,1,.707.707L262.957,110.958A12.47137,12.47137,0,0,1,254.11133,114.61621Z"/><path d="M321.12305,89.71826a.49842.49842,0,0,1-.35352-.14648l-28.1626-28.1626a9.96042,9.96042,0,0,0-14.06982,0L260.38623,79.56055a.49995.49995,0,0,1-.707-.707l18.15088-18.15137a10.9627,10.9627,0,0,1,15.48388,0l28.1626,28.1626a.5.5,0,0,1-.35351.85351Z"/><path d="M335.53613,75.30469a.49835.49835,0,0,1-.35351-.14649L307.02051,46.99609a9.96044,9.96044,0,0,0-14.06983,0L274.79932,65.147a.49995.49995,0,0,1-.707-.707l18.15136-18.15088a10.96229,10.96229,0,0,1,15.48389,0l28.16211,28.16211a.5.5,0,0,1-.35352.85352Z"/><path d="M334.57227,56.18164H317.88135a12.67692,12.67692,0,0,1-1.51856-.09131.50026.50026,0,1,1,.1211-.99316,11.56408,11.56408,0,0,0,1.39746.08447h16.69092a.5.5,0,0,1,0,1Z"/><path d="M256.74854,152.83691a.49838.49838,0,0,1-.35352-.14648,25.89832,25.89832,0,0,1,0-36.58447l5.855-5.855a.49995.49995,0,1,1,.707.707l-5.855,5.855a24.89781,24.89781,0,0,0,0,35.17041.5.5,0,0,1-.35351.85351Z"/><path d="M292.92432,141.64209a.5.5,0,0,1-.35352-.85352l55.74268-55.74316a17.58836,17.58836,0,0,0,5.186-12.52V42.11084a9.95988,9.95988,0,0,0-9.94873-9.94873H317.88135a11.52259,11.52259,0,0,0-11.50977,11.50977,11.64527,11.64527,0,0,0,.15283,1.88085.50018.50018,0,1,1-.9873.16114,12.68325,12.68325,0,0,1-.16553-2.042,12.52389,12.52389,0,0,1,12.50977-12.50977h25.66943a10.96118,10.96118,0,0,1,10.94873,10.94873V72.52539a18.5815,18.5815,0,0,1-5.479,13.22705l-55.74268,55.74317A.49838.49838,0,0,1,292.92432,141.64209Z"/><path d="M356.665,152.83691a.49838.49838,0,0,1-.35352-.14648l-36.61963-36.61914a.49995.49995,0,1,1,.707-.707l36.61962,36.61914a.5.5,0,0,1-.35351.85351Z"/><path d="M238.77013,74.22927a23.14195,23.14195,0,0,1-18.4082-37.16358l.27539-.36084-.41113-.3789a6.39556,6.39556,0,1,1,8.977-9.11133c.23877.23926.61768.29394,3.14258.56641,5.32177.57373,17.78418,1.917,22.80127,6.93408,5.01758,5.01758,6.36084,17.481,6.93408,22.80322.272,2.523.32666,2.90137.56592,3.14063a6.39745,6.39745,0,1,1-9.04737,9.04736l-.44384-.48047-.35938.27441A23.24515,23.24515,0,0,1,238.77013,74.22927Z" fill="#fff"/><path d="M224.67931,25.84084a5.85972,5.85972,0,0,1,4.17017,1.7273c.37939.37963.84717.43017,3.44238.71,5.26929.56787,17.60913,1.89819,22.50171,6.79052,4.89209,4.89258,6.22241,17.23218,6.79028,22.50147.27979,2.59546.33033,3.063.71,3.44238a5.89759,5.89759,0,0,1-8.33887,8.342l-.04028-.04516-.08521-.095-.61792-.66016-.71875.54858a22.74028,22.74028,0,0,1-13.72266,4.626,22.64146,22.64146,0,0,1-18.01074-36.35962l.54859-.71875-.66016-.61792-.09619-.08618-.04273-.0376a5.89759,5.89759,0,0,1,4.17041-10.06787m0-1a6.89758,6.89758,0,0,0-4.87744,11.7749c.05225.05225.10913.09668.1626.14673a23.64433,23.64433,0,0,0,33.135,33.13525c.05.05347.09473.11011.14673.16236a6.89757,6.89757,0,1,0,9.75464-9.75464c-.57373-.57349-.84864-19.292-7.50025-25.94385-6.65185-6.65185-25.37036-6.92676-25.94409-7.50049a6.87669,6.87669,0,0,0-4.8772-2.02026Z"/><path d="M267.94043,55.36572l-1.98291-1.98291a23.62627,23.62627,0,0,0-29.48218-29.48169l-1.97925-1.97924a4.00026,4.00026,0,0,0-5.65722,5.65722L262.2832,61.023a4.00027,4.00027,0,0,0,5.65723-5.65723Z"/><path d="M245.12538,50.41574l-2.54505-2.541a1.64908,1.64908,0,0,0-2.33217.0029h0a1.64909,1.64909,0,0,0,.0008,2.33217l2.545,2.541a1.6491,1.6491,0,0,0,2.33218-.0029h0A1.64909,1.64909,0,0,0,245.12538,50.41574Z"/><path d="M228.48277,38.44361l2.54505,2.541a1.64909,1.64909,0,0,0,2.33217-.0029h0a1.64909,1.64909,0,0,0-.0008-2.33217l-2.54505-2.541a1.6491,1.6491,0,0,0-2.33218.0029h0A1.64908,1.64908,0,0,0,228.48277,38.44361Z"/><rect x="202.67989" y="215.17177" width="73.67313" height="51.26201" rx="25.63098" transform="translate(238.60689 580.43975) rotate(-135)"/><path d="M248.48242,274.3208a24.1997,24.1997,0,0,1-23.916-20.89551l-.06006-.44775-.57422.02051a6.68429,6.68429,0,1,1,2.14941-12.9751l.42383.15088.19483-.40625a24.14675,24.14675,0,0,1,43.564,0l.19482.40625.42383-.15088a6.68357,6.68357,0,1,1,2.23877,12.98l-.66308-.02539-.06006.44775A24.20046,24.20046,0,0,1,248.48242,274.3208Z" fill="#fff"/><path d="M248.48218,226.54224a23.77569,23.77569,0,0,1,21.33154,13.4414l.38892.812.84814-.30175a6.18363,6.18363,0,1,1,2.0708,12.00927l-.06274-.00366-.13281-.00732-.90284-.02906-.12011.89551a23.63439,23.63439,0,0,1-46.84107,0l-.12036-.89526-.90283.02881-.13306.00732-.063.00366a6.18655,6.18655,0,1,1,2.071-12.00927l.84814.30175.38892-.812a23.77506,23.77506,0,0,1,21.3313-13.4414m0-1A24.63989,24.63989,0,0,0,226.249,239.55176a7.18366,7.18366,0,1,0-2.40625,13.95141c.07715,0,.15161-.009.228-.01147a24.63437,24.63437,0,0,0,48.82324,0c.07617.00244.15064.01147.22754.01147a7.18655,7.18655,0,1,0-2.406-13.95141,24.64026,24.64026,0,0,0-22.2334-14.00952Z"/><path d="M254.40247,249.24042l.00293,3.68183a1.68827,1.68827,0,0,0,1.69037,1.68617h0a1.68826,1.68826,0,0,0,1.68769-1.68885l-.00293-3.68183a1.68827,1.68827,0,0,0-1.69037-1.68617h0A1.68826,1.68826,0,0,0,254.40247,249.24042Z"/><path d="M239.51645,249.24042l.00293,3.68183a1.68827,1.68827,0,0,0,1.69037,1.68617h0a1.68826,1.68826,0,0,0,1.68769-1.68885l-.00292-3.68183a1.68828,1.68828,0,0,0-1.69038-1.68617h0A1.68826,1.68826,0,0,0,239.51645,249.24042Z"/><path d="M265.73405,233.82583c-4.16543-3.96779-11.11234-8.28356-17.31729-8.28356-6.20558,0-11.99154,3.61617-16.53029,7.15217a16.69388,16.69388,0,0,0-5.327,8.10833h43.7317A18.39066,18.39066,0,0,0,265.73405,233.82583Z"/><path d="M339.49914,171.92507a23.36116,23.36116,0,0,1-23.08692-20.17188l-.06-.44824-.57129.021a6.44061,6.44061,0,1,1,2.07226-12.502l.42383.15088.19434-.40625a23.31063,23.31063,0,0,1,42.05517,0l.19483.40625.42382-.15088a6.43989,6.43989,0,1,1,2.15674,12.50684l-.65527-.02588-.06006.44824A23.36164,23.36164,0,0,1,339.49914,171.92507Z" fill="#fff"/><path d="M339.49914,125.81911a22.93438,22.93438,0,0,1,20.5769,12.96582l.38892.81226.84839-.302a5.93975,5.93975,0,1,1,1.989,11.53564l-.05835-.00342-.12866-.00732-.90381-.03-.12036.89648a22.79806,22.79806,0,0,1-45.18359,0l-.12061-.89648-.90381.03-.12866.00732-.05811.00342a5.94253,5.94253,0,1,1,1.98926-11.53564l.84815.302.38891-.81226a22.93339,22.93339,0,0,1,20.57642-12.96582m0-1a23.80316,23.80316,0,0,0-21.47827,13.53394,6.93982,6.93982,0,1,0-2.32447,13.47778c.07422,0,.14624-.00879.22-.01123a23.798,23.798,0,0,0,47.16578,0c.07373.00244.14575.01123.22.01123a6.94253,6.94253,0,1,0-2.32422-13.47778,23.8039,23.8039,0,0,0-21.47876-13.53394Z"/><path d="M345.05644,145.09464l.00282,3.55684a1.631,1.631,0,0,0,1.633,1.62894h0a1.631,1.631,0,0,0,1.6304-1.63153l-.00283-3.55683a1.631,1.631,0,0,0-1.633-1.62894h0A1.631,1.631,0,0,0,345.05644,145.09464Z"/><path d="M330.67574,145.09464l.00283,3.55684a1.631,1.631,0,0,0,1.633,1.62894h0a1.631,1.631,0,0,0,1.6304-1.63153l-.00283-3.55683a1.631,1.631,0,0,0-1.633-1.62894h0A1.631,1.631,0,0,0,330.67574,145.09464Z"/><path d="M364.1748,138.45386a25.35734,25.35734,0,0,0-24.67553-19.86939h0c-12.44385,0-21.75073,8.76026-24.688,19.45362l1.69556.15087-.29859.488a23.58655,23.58655,0,0,0,9.69849,2.07788h0a23.84946,23.84946,0,0,0,20.82959-12.35009A24.00239,24.00239,0,0,0,360.468,139.58447l-.10181-.80786Z"/><path d="M145.49927,171.97314a26.53505,26.53505,0,0,1-26.22339-22.9121l-.0603-.44922-.68482.02832a7.36576,7.36576,0,1,1,2.46607-14.29883l.42431.15088.19434-.40625a26.47668,26.47668,0,0,1,47.76782,0l.19434.40625.42431-.15088a7.36257,7.36257,0,1,1,2.46558,14.29883l-.68433-.02832-.0603.44922A26.53511,26.53511,0,0,1,145.49927,171.97314Z" fill="#fff"/><path d="M145.49927,119.53638a26.11765,26.11765,0,0,1,23.4331,14.76562l.38892.81226.84863-.30225a6.86267,6.86267,0,1,1,2.29761,13.32813c-.02588,0-.05151-.00269-.07715-.0044l-.13672-.00781-.90552-.03174-.12085.89819a25.96273,25.96273,0,0,1-51.45581,0l-.12085-.89819-.90551.03174-.13672.00781c-.02564.00171-.05152.0044-.07764.0044a6.86576,6.86576,0,1,1,2.29834-13.32788l.84839.302.38892-.81226a26.1173,26.1173,0,0,1,23.43286-14.76562m0-1a26.96905,26.96905,0,0,0-24.33472,15.33374,7.86268,7.86268,0,1,0-2.63379,15.27c.08423,0,.166-.00977.24951-.0127a26.96285,26.96285,0,0,0,53.43824,0c.08349.00293.165.0127.249.0127a7.86575,7.86575,0,1,0-2.6333-15.27,26.96942,26.96942,0,0,0-24.335-15.33374Z"/><path d="M151.97914,144.47452l.0032,4.02985a1.84787,1.84787,0,0,0,1.85016,1.84556h0a1.84784,1.84784,0,0,0,1.84722-1.84849l-.0032-4.02985a1.84785,1.84785,0,0,0-1.85016-1.84556h0A1.84785,1.84785,0,0,0,151.97914,144.47452Z"/><path d="M135.686,144.47452l.0032,4.02985a1.84786,1.84786,0,0,0,1.85016,1.84556h0a1.84785,1.84785,0,0,0,1.84722-1.84849l-.0032-4.02985a1.84785,1.84785,0,0,0-1.85016-1.84556h0A1.84785,1.84785,0,0,0,135.686,144.47452Z"/><path d="M119.19351,141.81626c1.3756-13.54533,12.39746-23.06724,26.30572-23.06724a26.86785,26.86785,0,0,1,26.596,23.06724Z"/><path d="M51.38055,54.47866a6.73486,6.73486,0,0,1-1.83675-3.43675,6.31593,6.31593,0,0,1,1.16943-5.12248,6.08776,6.08776,0,0,1,3.40914-2.31233,7.34326,7.34326,0,0,1,1.88705-.24241q.21923,0,.44058.01232a6.83893,6.83893,0,0,1,2.559.62451,5.98837,5.98837,0,0,1,1.765,1.26133c.22579.23241.44874.46785.67158.70329l.02426.02557a.49883.49883,0,0,1,.0413.05415l.03822.05276a.24416.24416,0,0,0,.18023.09645.24926.24926,0,0,0,.191-.07391l.11657-.12016c.07775-.07971.14733-.1513.21467-.22474a7.95453,7.95453,0,0,1,1.52575-1.35035,6.86737,6.86737,0,0,1,8.11351.5162,5.95863,5.95863,0,0,1,1.98337,3.173A6.42945,6.42945,0,0,1,72.167,54.43613c-2.85981,3.001-8.20273,8.20619-9.95842,9.91679-.21669.211-.35917.34978-.4536.44229C60.66325,63.7484,54.50094,57.72089,51.38055,54.47866Z"/></svg>